<svg width="8" height="29" viewBox="0 0 8 29" fill="none" xmlns="http://www.w3.org/2000/svg">
<path d="M4 7.16211C5.925 7.16211 7.5 5.58711 7.5 3.66211C7.5 1.73711 5.925 0.162109 4 0.162109C2.075 0.162109 0.5 1.73711 0.5 3.66211C0.5 5.58711 2.075 7.16211 4 7.16211ZM4 10.6621C2.075 10.6621 0.5 12.2371 0.5 14.1621C0.5 16.0871 2.075 17.6621 4 17.6621C5.925 17.6621 7.5 16.0871 7.5 14.1621C7.5 12.2371 5.925 10.6621 4 10.6621ZM4 21.1621C2.075 21.1621 0.5 22.7371 0.5 24.6621C0.5 26.5871 2.075 28.1621 4 28.1621C5.925 28.1621 7.5 26.5871 7.5 24.6621C7.5 22.7371 5.925 21.1621 4 21.1621Z" fill="#1E1D28"/>
</svg>
