<svg width="13" height="13" viewBox="0 0 13 13" fill="none" xmlns="http://www.w3.org/2000/svg">
<path fill-rule="evenodd" clip-rule="evenodd" d="M10.138 1.12495L12.2005 3.18739C12.777 3.7367 12.8006 4.64891 12.2531 5.22725L5.47871 12.0017C5.23335 12.245 4.91176 12.3965 4.56792 12.4307L1.4291 12.7168H1.36135C1.16128 12.7179 0.968975 12.6394 0.826923 12.4985C0.668128 12.3403 0.588106 12.1195 0.608636 11.8963L0.932304 8.75749C0.966556 8.41365 1.11805 8.09206 1.36135 7.8467L8.13579 1.07226C8.71977 0.578895 9.5808 0.601554 10.138 1.12495ZM7.62388 3.68438L9.64116 5.70166L11.1466 4.23386L9.09167 2.17895L7.62388 3.68438Z" fill="black"/>
</svg>
