<svg width="75" height="75" viewBox="0 0 75 75" fill="none" xmlns="http://www.w3.org/2000/svg">
<path fill-rule="evenodd" clip-rule="evenodd" d="M75 37.5C75 47.4456 71.0491 56.9839 64.0165 64.0165C56.9839 71.0491 47.4456 75 37.5 75C27.5544 75 18.0161 71.0491 10.9835 64.0165C3.95088 56.9839 0 47.4456 0 37.5C0 27.5544 3.95088 18.0161 10.9835 10.9835C18.0161 3.95088 27.5544 0 37.5 0C47.4456 0 56.9839 3.95088 64.0165 10.9835C71.0491 18.0161 75 27.5544 75 37.5ZM39.8438 21.0938C39.8438 20.4721 39.5968 19.876 39.1573 19.4365C38.7177 18.9969 38.1216 18.75 37.5 18.75C36.8784 18.75 36.2823 18.9969 35.8427 19.4365C35.4032 19.876 35.1562 20.4721 35.1562 21.0938V48.2484L25.0969 38.1844C24.6568 37.7443 24.0599 37.497 23.4375 37.497C22.8151 37.497 22.2182 37.7443 21.7781 38.1844C21.338 38.6245 21.0908 39.2214 21.0908 39.8438C21.0908 40.4661 21.338 41.063 21.7781 41.5031L35.8406 55.5656C36.0583 55.7839 36.317 55.9571 36.6017 56.0752C36.8865 56.1934 37.1917 56.2542 37.5 56.2542C37.8083 56.2542 38.1135 56.1934 38.3983 56.0752C38.683 55.9571 38.9417 55.7839 39.1594 55.5656L53.2219 41.5031C53.662 41.063 53.9092 40.4661 53.9092 39.8438C53.9092 39.2214 53.662 38.6245 53.2219 38.1844C52.7818 37.7443 52.1849 37.497 51.5625 37.497C50.9401 37.497 50.3432 37.7443 49.9031 38.1844L39.8438 48.2484V21.0938Z" fill="#4C495E"/>
</svg>
