<svg width="18" height="18" viewBox="0 0 18 18" fill="none" xmlns="http://www.w3.org/2000/svg">
<path fill-rule="evenodd" clip-rule="evenodd" d="M14.0006 5.33301C14.0006 8.09443 11.762 10.333 9.00057 10.333C6.23915 10.333 4.00057 8.09443 4.00057 5.33301C4.00057 2.57158 6.23915 0.333008 9.00057 0.333008C11.762 0.333008 14.0006 2.57158 14.0006 5.33301ZM12.3339 5.33301C12.3339 7.17396 10.8415 8.66634 9.00057 8.66634C7.15962 8.66634 5.66724 7.17396 5.66724 5.33301C5.66724 3.49206 7.15962 1.99967 9.00057 1.99967C10.8415 1.99967 12.3339 3.49206 12.3339 5.33301Z" fill="#1E1D28" fill-opacity="0.32"/>
<path fill-rule="evenodd" clip-rule="evenodd" d="M9.00063 11.1663C6.55469 11.1663 4.79115 11.6737 3.52611 12.4345C2.25601 13.1982 1.54263 14.185 1.14868 15.0481C0.81661 15.7756 0.967747 16.517 1.40894 17.0451C1.8295 17.5486 2.4834 17.833 3.16728 17.833H14.8339C15.5178 17.833 16.1717 17.5486 16.5922 17.0452C17.0334 16.517 17.1846 15.7756 16.8525 15.0481C16.4586 14.1851 15.7452 13.1983 14.4752 12.4345C13.2101 11.6737 11.4466 11.1663 9.00063 11.1663ZM2.66486 15.7402C2.93832 15.1411 3.44065 14.4307 4.38503 13.8628C5.33445 13.2918 6.78414 12.833 9.00063 12.833C11.2171 12.833 12.6668 13.2918 13.6162 13.8628C14.5606 14.4307 15.0629 15.1411 15.3363 15.7402C15.3686 15.8109 15.3672 15.8535 15.364 15.8752C15.3603 15.9 15.3481 15.9348 15.3131 15.9767C15.238 16.0666 15.0705 16.1663 14.8339 16.1663H3.16728C2.93067 16.1663 2.7632 16.0666 2.68807 15.9767C2.65309 15.9348 2.64092 15.9 2.63722 15.8752C2.63398 15.8535 2.63257 15.8109 2.66486 15.7402Z" fill="#1E1D28" fill-opacity="0.32"/>
</svg>
