<svg width="19" height="19" viewBox="0 0 19 19" fill="none" xmlns="http://www.w3.org/2000/svg">
<path d="M10.649 15.2791L10.9731 15.4451L11.2305 15.1877L13.4305 12.9877C13.566 12.8522 13.766 12.8092 13.9348 12.8671L13.9348 12.8671L13.9402 12.8689C15.1106 13.2555 16.3736 13.4641 17.667 13.4641C17.9408 13.4641 18.167 13.6902 18.167 13.9641V17.4541C18.167 17.728 17.9408 17.9541 17.667 17.9541C8.55313 17.9541 1.16699 10.568 1.16699 1.4541C1.16699 1.18024 1.39313 0.954102 1.66699 0.954102H5.16699C5.44085 0.954102 5.66699 1.18024 5.66699 1.4541C5.66699 2.75623 5.87514 4.00778 6.26089 5.1769C6.31619 5.35627 6.2752 5.54879 6.13344 5.69055L3.93344 7.89055L3.67672 8.14727L3.84136 8.47085C5.32974 11.3959 7.72651 13.7817 10.649 15.2791Z" fill="#E1876C" stroke="#E1876C"/>
</svg>
