<svg width="24" height="24" viewBox="0 0 24 24" fill="none" xmlns="http://www.w3.org/2000/svg">
<path fill-rule="evenodd" clip-rule="evenodd" d="M12 22.2857C17.6806 22.2857 22.2857 17.6806 22.2857 12C22.2857 6.31936 17.6806 1.71429 12 1.71429C6.31936 1.71429 1.71429 6.31936 1.71429 12C1.71429 17.6806 6.31936 22.2857 12 22.2857ZM12 24C18.6274 24 24 18.6274 24 12C24 5.37258 18.6274 0 12 0C5.37258 0 0 5.37258 0 12C0 18.6274 5.37258 24 12 24Z" fill="#CD6C4F"/>
<path d="M8.90553 9.76701H10.7906C10.8323 8.98098 11.361 8.47319 12.1609 8.47319C12.9539 8.47319 13.4826 8.95316 13.4826 9.61397C13.4826 10.2748 13.2113 10.6156 12.314 11.1512C11.354 11.7147 10.9715 12.3407 11.0619 13.4328L11.0758 13.8363H12.9191V13.4676C12.9191 12.7859 13.1765 12.4451 14.1016 11.9094C15.0824 11.3321 15.5902 10.6017 15.5902 9.55137C15.5902 7.96541 14.2755 6.85941 12.2861 6.85941C10.1506 6.85941 8.94031 8.05584 8.90553 9.76701ZM12.0218 17.1612C12.6548 17.1612 13.1626 16.6812 13.1626 16.0691C13.1626 15.457 12.6548 14.977 12.0218 14.977C11.3958 14.977 10.888 15.457 10.888 16.0691C10.888 16.6812 11.3958 17.1612 12.0218 17.1612Z" fill="#CD6C4F"/>
</svg>
