<svg width="5" height="14" viewBox="0 0 5 14" fill="none" xmlns="http://www.w3.org/2000/svg">
<path d="M2.50065 3.66634C3.41732 3.66634 4.16732 2.91634 4.16732 1.99967C4.16732 1.08301 3.41732 0.333008 2.50065 0.333008C1.58398 0.333008 0.833984 1.08301 0.833984 1.99967C0.833984 2.91634 1.58398 3.66634 2.50065 3.66634ZM2.50065 5.33301C1.58398 5.33301 0.833984 6.08301 0.833984 6.99967C0.833984 7.91634 1.58398 8.66634 2.50065 8.66634C3.41732 8.66634 4.16732 7.91634 4.16732 6.99967C4.16732 6.08301 3.41732 5.33301 2.50065 5.33301ZM2.50065 10.333C1.58398 10.333 0.833984 11.083 0.833984 11.9997C0.833984 12.9163 1.58398 13.6663 2.50065 13.6663C3.41732 13.6663 4.16732 12.9163 4.16732 11.9997C4.16732 11.083 3.41732 10.333 2.50065 10.333Z" fill="black"/>
</svg>
