<svg width="17" height="17" viewBox="0 0 17 17" fill="none" xmlns="http://www.w3.org/2000/svg">
<path d="M0.666016 1.5C0.666016 0.947715 1.11373 0.5 1.66602 0.5H3.81889C4.30773 0.5 4.72492 0.853413 4.80528 1.3356L5.54459 5.77147C5.61677 6.20451 5.39807 6.63397 5.00541 6.8303L3.45728 7.60437C4.57357 10.3783 6.7877 12.5924 9.56165 13.7087L10.3357 12.1606C10.532 11.7679 10.9615 11.5492 11.3945 11.6214L15.8304 12.3607C16.3126 12.4411 16.666 12.8583 16.666 13.3471V15.5C16.666 16.0523 16.2183 16.5 15.666 16.5H13.666C6.48631 16.5 0.666016 10.6797 0.666016 3.5V1.5Z" fill="#1E1D28" fill-opacity="0.32"/>
</svg>
